%TF.GenerationSoftware,Altium Limited,Altium Designer,26.9.1 (10)*%
G04 Layer_Color=65535*
G04 Board_Origin=0|0*
%FSLAX45Y45*%
%MOMM*%
%TF.SameCoordinates,8D97C755-D6C4-4745-A406-B80F163DE797*%
%TF.FilePolarity,Positive*%
%TF.FileFunction,Legend,Top*%
%TF.Part,Single*%
G01*
G75*
%TA.AperFunction,NonConductor*%
%ADD11C,0.25400*%
%ADD50C,0.25000*%
%ADD51C,0.20000*%
%ADD52C,0.17500*%
%ADD53C,0.30000*%
D11*
X9201788Y6218828D02*
G03*
X9201788Y6218828I-10270J0D01*
G01*
X9451967Y6544859D02*
X9426575Y6570251D01*
X9375792D01*
X9350400Y6544859D01*
Y6443292D01*
X9375792Y6417900D01*
X9426575D01*
X9451967Y6443292D01*
Y6494075D01*
X9401183D01*
X9502751Y6417900D02*
Y6570251D01*
X9578926D01*
X9604318Y6544859D01*
Y6494075D01*
X9578926Y6468684D01*
X9502751D01*
X9655101Y6570251D02*
X9705885D01*
X9680493D01*
Y6417900D01*
X9655101D01*
X9705885D01*
X9858236Y6570251D02*
X9807452D01*
X9782060Y6544859D01*
Y6443292D01*
X9807452Y6417900D01*
X9858236D01*
X9883627Y6443292D01*
Y6544859D01*
X9858236Y6570251D01*
X11632900Y7500251D02*
Y7373292D01*
X11658292Y7347900D01*
X11709075D01*
X11734467Y7373292D01*
Y7500251D01*
X11886818Y7474859D02*
X11861426Y7500251D01*
X11810643D01*
X11785251Y7474859D01*
Y7449467D01*
X11810643Y7424075D01*
X11861426D01*
X11886818Y7398683D01*
Y7373292D01*
X11861426Y7347900D01*
X11810643D01*
X11785251Y7373292D01*
X11937601Y7500251D02*
Y7347900D01*
X12013777D01*
X12039169Y7373292D01*
Y7398683D01*
X12013777Y7424075D01*
X11937601D01*
X12013777D01*
X12039169Y7449467D01*
Y7474859D01*
X12013777Y7500251D01*
X11937601D01*
D50*
X11547500Y7860000D02*
G03*
X11547500Y7860000I-12500J0D01*
G01*
X11277500Y6967000D02*
G03*
X11277500Y6967000I-12500J0D01*
G01*
X9317500Y9030000D02*
G03*
X9317500Y9030000I-12500J0D01*
G01*
X9568040Y8238790D02*
G03*
X9568040Y8238790I-12500J0D01*
G01*
D51*
X11585000Y7588000D02*
X11852500D01*
X11585000Y8397000D02*
X11852500D01*
X11585000Y8350000D02*
Y8397000D01*
Y7588000D02*
Y7635000D01*
X10589750Y6812750D02*
X11240250D01*
X10589750Y6462250D02*
Y6812750D01*
Y6462250D02*
X11240250D01*
Y6812750D01*
X9395000Y8520000D02*
Y8552500D01*
X9362500Y8520000D02*
X9395000D01*
X8965000D02*
X8997500D01*
X8965000D02*
Y8552500D01*
Y8917500D02*
Y8950000D01*
X8997500D01*
X9395000Y8917500D02*
Y8950000D01*
X9362500D02*
X9395000D01*
X9620540Y7513790D02*
X9663040D01*
X9620540D02*
Y7556290D01*
X10318040Y7513790D02*
X10360540D01*
Y7556290D01*
Y8211290D02*
Y8253790D01*
X10318040D02*
X10360540D01*
X9620540D02*
X9663040D01*
X9620540Y8211290D02*
Y8253790D01*
X8974427Y7333215D02*
Y7422500D01*
Y7333215D02*
X9097500D01*
D52*
X11680285Y6514715D02*
Y6640000D01*
X11809715D01*
Y6514715D02*
Y6640000D01*
X10355000Y8885000D02*
X10935000D01*
X11055000Y8765000D01*
Y8625000D02*
Y8765000D01*
X10935000Y8505000D02*
X11055000Y8625000D01*
X10355000Y8505000D02*
X10935000D01*
X10355000D02*
Y8885000D01*
X10517215Y7587785D02*
X10642500D01*
Y7717215D01*
X10517215D02*
X10642500D01*
D53*
X8995000Y5812500D02*
Y6187500D01*
X9120000Y6312500D01*
X10070000D01*
X10195000Y6187500D01*
Y5812500D02*
Y6187500D01*
X10459967Y8442460D02*
X10434976Y8467451D01*
X10384992D01*
X10360000Y8442460D01*
Y8417468D01*
X10384992Y8392476D01*
X10434976D01*
X10459967Y8367484D01*
Y8342492D01*
X10434976Y8317500D01*
X10384992D01*
X10360000Y8342492D01*
X10509951Y8467451D02*
Y8317500D01*
X10559935Y8367484D01*
X10609919Y8317500D01*
Y8467451D01*
X10659903D02*
Y8317500D01*
X10734878D01*
X10759870Y8342492D01*
Y8442460D01*
X10734878Y8467451D01*
X10659903D01*
%TF.MD5,5a2747c13e964b9c78d0ab697f47d72f*%
M02*
