%TF.GenerationSoftware,Altium Limited,Altium Designer,26.9.1 (10)*%
G04 Layer_Color=255*
G04 Board_Origin=0|0*
%FSLAX45Y45*%
%MOMM*%
%TF.SameCoordinates,8D97C755-D6C4-4745-A406-B80F163DE797*%
%TF.FilePolarity,Positive*%
%TF.FileFunction,Pads,Top*%
%TF.Part,Single*%
G01*
G75*
%TA.AperFunction,BGAPad,CuDef*%
%ADD12C,0.86300*%
%TA.AperFunction,SMDPad,CuDef*%
G04:AMPARAMS|DCode=13|XSize=0.6mm|YSize=0.7mm|CornerRadius=0.075mm|HoleSize=0mm|Usage=FLASHONLY|Rotation=0.000|XOffset=0mm|YOffset=0mm|HoleType=Round|Shape=RoundedRectangle|*
%AMROUNDEDRECTD13*
21,1,0.60000,0.55000,0,0,0.0*
21,1,0.45000,0.70000,0,0,0.0*
1,1,0.15000,0.22500,-0.27500*
1,1,0.15000,-0.22500,-0.27500*
1,1,0.15000,-0.22500,0.27500*
1,1,0.15000,0.22500,0.27500*
%
%ADD13ROUNDEDRECTD13*%
G04:AMPARAMS|DCode=14|XSize=0.6mm|YSize=0.7mm|CornerRadius=0.075mm|HoleSize=0mm|Usage=FLASHONLY|Rotation=90.000|XOffset=0mm|YOffset=0mm|HoleType=Round|Shape=RoundedRectangle|*
%AMROUNDEDRECTD14*
21,1,0.60000,0.55000,0,0,90.0*
21,1,0.45000,0.70000,0,0,90.0*
1,1,0.15000,0.27500,0.22500*
1,1,0.15000,0.27500,-0.22500*
1,1,0.15000,-0.27500,-0.22500*
1,1,0.15000,-0.27500,0.22500*
%
%ADD14ROUNDEDRECTD14*%
%TA.AperFunction,ConnectorPad*%
%ADD15R,1.38000X0.45000*%
%TA.AperFunction,SMDPad,CuDef*%
%ADD16O,0.80000X0.25000*%
%ADD17O,0.25000X0.80000*%
G04:AMPARAMS|DCode=18|XSize=0.8mm|YSize=1mm|CornerRadius=0.1mm|HoleSize=0mm|Usage=FLASHONLY|Rotation=90.000|XOffset=0mm|YOffset=0mm|HoleType=Round|Shape=RoundedRectangle|*
%AMROUNDEDRECTD18*
21,1,0.80000,0.80000,0,0,90.0*
21,1,0.60000,1.00000,0,0,90.0*
1,1,0.20000,0.40000,0.30000*
1,1,0.20000,0.40000,-0.30000*
1,1,0.20000,-0.40000,-0.30000*
1,1,0.20000,-0.40000,0.30000*
%
%ADD18ROUNDEDRECTD18*%
%ADD19R,1.25000X1.25000*%
G04:AMPARAMS|DCode=20|XSize=1.4mm|YSize=1.7mm|CornerRadius=0.175mm|HoleSize=0mm|Usage=FLASHONLY|Rotation=270.000|XOffset=0mm|YOffset=0mm|HoleType=Round|Shape=RoundedRectangle|*
%AMROUNDEDRECTD20*
21,1,1.40000,1.35000,0,0,270.0*
21,1,1.05000,1.70000,0,0,270.0*
1,1,0.35000,-0.67500,-0.52500*
1,1,0.35000,-0.67500,0.52500*
1,1,0.35000,0.67500,0.52500*
1,1,0.35000,0.67500,-0.52500*
%
%ADD20ROUNDEDRECTD20*%
G04:AMPARAMS|DCode=21|XSize=0.8mm|YSize=1mm|CornerRadius=0.1mm|HoleSize=0mm|Usage=FLASHONLY|Rotation=0.000|XOffset=0mm|YOffset=0mm|HoleType=Round|Shape=RoundedRectangle|*
%AMROUNDEDRECTD21*
21,1,0.80000,0.80000,0,0,0.0*
21,1,0.60000,1.00000,0,0,0.0*
1,1,0.20000,0.30000,-0.40000*
1,1,0.20000,-0.30000,-0.40000*
1,1,0.20000,-0.30000,0.40000*
1,1,0.20000,0.30000,0.40000*
%
%ADD21ROUNDEDRECTD21*%
G04:AMPARAMS|DCode=22|XSize=1.4mm|YSize=1.7mm|CornerRadius=0.175mm|HoleSize=0mm|Usage=FLASHONLY|Rotation=180.000|XOffset=0mm|YOffset=0mm|HoleType=Round|Shape=RoundedRectangle|*
%AMROUNDEDRECTD22*
21,1,1.40000,1.35000,0,0,180.0*
21,1,1.05000,1.70000,0,0,180.0*
1,1,0.35000,-0.52500,0.67500*
1,1,0.35000,0.52500,0.67500*
1,1,0.35000,0.52500,-0.67500*
1,1,0.35000,-0.52500,-0.67500*
%
%ADD22ROUNDEDRECTD22*%
%ADD23R,0.65000X1.70000*%
%ADD24R,0.35000X0.80000*%
%ADD25R,2.60000X2.70000*%
%ADD26R,0.85000X0.35000*%
%ADD27R,5.60000X5.60000*%
G04:AMPARAMS|DCode=28|XSize=1.3mm|YSize=1.1mm|CornerRadius=0.055mm|HoleSize=0mm|Usage=FLASHONLY|Rotation=0.000|XOffset=0mm|YOffset=0mm|HoleType=Round|Shape=RoundedRectangle|*
%AMROUNDEDRECTD28*
21,1,1.30000,0.99000,0,0,0.0*
21,1,1.19000,1.10000,0,0,0.0*
1,1,0.11000,0.59500,-0.49500*
1,1,0.11000,-0.59500,-0.49500*
1,1,0.11000,-0.59500,0.49500*
1,1,0.11000,0.59500,0.49500*
%
%ADD28ROUNDEDRECTD28*%
%TA.AperFunction,ConnectorPad*%
%ADD29R,1.55000X1.42500*%
%ADD30R,1.90000X1.00000*%
%ADD31R,1.90000X1.80000*%
%ADD32R,1.30000X1.65000*%
%TA.AperFunction,SMDPad,CuDef*%
%ADD33R,3.50000X1.25000*%
%ADD34R,1.00000X2.90000*%
%TA.AperFunction,ViaPad*%
%ADD41C,1.15200*%
%ADD42C,1.52400*%
%TA.AperFunction,ComponentPad*%
%ADD43C,1.06700*%
D12*
X10578000Y8758500D02*
D03*
X10832000D02*
D03*
X10705000D02*
D03*
X10832000Y8631500D02*
D03*
X10705000D02*
D03*
X10578000D02*
D03*
D13*
X10482500Y8972500D02*
D03*
X10482500Y7510000D02*
D03*
X10240000Y7397500D02*
D03*
X9750000Y8362500D02*
D03*
X9172500Y8410000D02*
D03*
X9360000Y7730000D02*
D03*
X9052500D02*
D03*
X10825000Y8972500D02*
D03*
X10180000Y8615000D02*
D03*
X9892500D02*
D03*
X10340000Y7397500D02*
D03*
X9650000Y8362500D02*
D03*
X9072500Y8410000D02*
D03*
X10582500Y7510000D02*
D03*
X10582500Y7652500D02*
D03*
X9992500Y8615000D02*
D03*
X10080000D02*
D03*
X10482500Y7652500D02*
D03*
X10725000Y8972500D02*
D03*
X9262500Y7825000D02*
D03*
X9362500D02*
D03*
X10582500Y8972500D02*
D03*
X9260000Y7730000D02*
D03*
X9152500D02*
D03*
D14*
X10487500Y8132500D02*
D03*
X9907500Y8520000D02*
D03*
X11747500Y6817500D02*
D03*
X9510000Y8550000D02*
D03*
X8827500Y8805000D02*
D03*
X8845000Y8620000D02*
D03*
X9525000Y7827500D02*
D03*
X9477500Y8107500D02*
D03*
X9525000Y7727500D02*
D03*
X10487500Y8232500D02*
D03*
X11745000Y6480000D02*
D03*
X8827500Y8905000D02*
D03*
X9477500Y8207500D02*
D03*
X11747500Y6717500D02*
D03*
X11745000Y6580000D02*
D03*
X8845000Y8720000D02*
D03*
X9510000Y8650000D02*
D03*
X9907500Y8420000D02*
D03*
D15*
X11689000Y8122500D02*
D03*
Y8057500D02*
D03*
Y7992500D02*
D03*
Y7927500D02*
D03*
Y7862500D02*
D03*
D16*
X10330540Y8108790D02*
D03*
X9650540Y7808790D02*
D03*
X10330540Y7958790D02*
D03*
Y8008790D02*
D03*
Y8158790D02*
D03*
X9650540D02*
D03*
Y7758790D02*
D03*
X10330540Y8058790D02*
D03*
Y7908790D02*
D03*
Y7858790D02*
D03*
Y7808790D02*
D03*
Y7758790D02*
D03*
Y7708790D02*
D03*
Y7658790D02*
D03*
Y7608790D02*
D03*
X9650540D02*
D03*
Y7658790D02*
D03*
Y7708790D02*
D03*
Y7858790D02*
D03*
Y7908790D02*
D03*
Y7958790D02*
D03*
Y8008790D02*
D03*
Y8058790D02*
D03*
Y8108790D02*
D03*
D17*
X10215540Y7543790D02*
D03*
X9765540Y8223790D02*
D03*
X9715540D02*
D03*
X10265540Y7543790D02*
D03*
X9815540Y8223790D02*
D03*
X9865540D02*
D03*
X9915540D02*
D03*
X9965540D02*
D03*
X10015540D02*
D03*
X10065540D02*
D03*
X10115540D02*
D03*
X10165540D02*
D03*
X10215540D02*
D03*
X10265540D02*
D03*
X10165540Y7543790D02*
D03*
X10115540D02*
D03*
X10065540D02*
D03*
X10015540D02*
D03*
X9965540D02*
D03*
X9915540D02*
D03*
X9865540D02*
D03*
X9815540D02*
D03*
X9765540D02*
D03*
X9715540D02*
D03*
D18*
X11385000Y7447500D02*
D03*
X11245000Y7452500D02*
D03*
X9369389Y8080257D02*
D03*
Y8230257D02*
D03*
X11245000Y7602500D02*
D03*
X11385000Y7597500D02*
D03*
D19*
X11144000Y6967000D02*
D03*
X10915000D02*
D03*
X10686000D02*
D03*
D20*
X11402500Y6761800D02*
D03*
Y6533200D02*
D03*
D21*
X9992500Y7392500D02*
D03*
X11240000Y7725000D02*
D03*
X11390000D02*
D03*
X10142500Y7392500D02*
D03*
D22*
X11039300Y7185000D02*
D03*
X10810700D02*
D03*
D23*
X9907500Y6177500D02*
D03*
X9282500D02*
D03*
X9407500D02*
D03*
X9657500D02*
D03*
X9782500D02*
D03*
X9532500D02*
D03*
D24*
X9305000Y8935000D02*
D03*
Y8535000D02*
D03*
X9055000D02*
D03*
X9105000D02*
D03*
X9155000D02*
D03*
X9205000D02*
D03*
X9255000D02*
D03*
X9055000Y8935000D02*
D03*
X9105000D02*
D03*
X9155000D02*
D03*
X9205000D02*
D03*
X9255000D02*
D03*
D25*
X9180000Y8735000D02*
D03*
D26*
X8982500Y8760000D02*
D03*
Y8660000D02*
D03*
Y8810000D02*
D03*
X9377500Y8610000D02*
D03*
Y8660000D02*
D03*
Y8710000D02*
D03*
Y8760000D02*
D03*
Y8810000D02*
D03*
Y8860000D02*
D03*
X8982500Y8610000D02*
D03*
Y8710000D02*
D03*
Y8860000D02*
D03*
D27*
X9990540Y7883790D02*
D03*
D28*
X9312500Y7427500D02*
D03*
X9082500Y7617500D02*
D03*
X9312500D02*
D03*
X9082500Y7427500D02*
D03*
D29*
X11697500Y8241250D02*
D03*
Y7743750D02*
D03*
D30*
X11955000Y8147500D02*
D03*
D31*
Y7877500D02*
D03*
D32*
Y8330000D02*
D03*
Y7655000D02*
D03*
D33*
X10915000Y6308000D02*
D03*
D34*
X9097500Y5897500D02*
D03*
X10092500D02*
D03*
D41*
X11877500Y6202500D02*
D03*
X8245000Y8825000D02*
D03*
D42*
X8217500Y5910000D02*
D03*
X11905000Y5892500D02*
D03*
X11907500Y9295000D02*
D03*
X8232500Y9292500D02*
D03*
D43*
X10959000Y8695000D02*
D03*
X10451000Y8593400D02*
D03*
Y8796600D02*
D03*
%TF.MD5,fa3ce270ef04e8c6a2590d0e5a38b772*%
M02*
