%TF.GenerationSoftware,Altium Limited,Altium Designer,26.9.1 (10)*%
G04 Layer_Physical_Order=3*
G04 Layer_Color=16440176*
G04 Board_Origin=0|0*
%FSLAX45Y45*%
%MOMM*%
%TF.SameCoordinates,8D97C755-D6C4-4745-A406-B80F163DE797*%
%TF.FilePolarity,Positive*%
%TF.FileFunction,Copper,L3,Inr,Signal*%
%TF.Part,Single*%
G01*
G75*
%TA.AperFunction,ViaPad*%
%ADD41C,1.15200*%
%ADD42C,1.52400*%
%TA.AperFunction,ComponentPad*%
%ADD43C,1.06700*%
%TA.AperFunction,ViaPad*%
%ADD44C,1.00000*%
%ADD45C,0.70000*%
%ADD46C,0.50000*%
%ADD47C,0.55000*%
%ADD48C,0.60000*%
%ADD49C,0.90000*%
G36*
X11850790Y9435141D02*
X11897477Y9415803D01*
X11896341Y9405225D01*
X11890369Y9390004D01*
X11870368Y9384644D01*
X11848432Y9371979D01*
X11830521Y9354068D01*
X11817856Y9332132D01*
X11811300Y9307665D01*
Y9282335D01*
X11817856Y9257868D01*
X11830521Y9235932D01*
X11848432Y9218021D01*
X11870368Y9205356D01*
X11894835Y9198800D01*
X11920165D01*
X11944632Y9205356D01*
X11966568Y9218021D01*
X11984479Y9235932D01*
X11985757Y9238146D01*
X12019370Y9246907D01*
X12026788Y9242442D01*
X12032500Y9213727D01*
Y9188460D01*
Y5902500D01*
Y5885510D01*
X12025871Y5852183D01*
X12012867Y5820790D01*
X11993989Y5792538D01*
X11969962Y5768510D01*
X11941709Y5749632D01*
X11910316Y5736629D01*
X11876989Y5730000D01*
X8074005D01*
X8072168Y5730761D01*
X8070761Y5732168D01*
X8070000Y5734005D01*
Y9207322D01*
X8070000Y9207500D01*
X8071216Y9232409D01*
X8077358Y9263290D01*
X8096697Y9309977D01*
X8113706Y9335433D01*
X8118467Y9336395D01*
X8138827Y9314597D01*
X8136300Y9305165D01*
Y9279835D01*
X8142856Y9255368D01*
X8155521Y9233432D01*
X8173432Y9215521D01*
X8195368Y9202856D01*
X8219835Y9196300D01*
X8245165D01*
X8269632Y9202856D01*
X8291568Y9215521D01*
X8309479Y9233432D01*
X8322144Y9255368D01*
X8328700Y9279835D01*
Y9305165D01*
X8322144Y9329632D01*
X8309479Y9351568D01*
X8291568Y9369479D01*
X8269632Y9382144D01*
X8245165Y9388700D01*
X8222446D01*
X8215556Y9395629D01*
X8205899Y9411262D01*
X8210161Y9418966D01*
X8249210Y9435141D01*
X8298773Y9445000D01*
X11801227D01*
X11850790Y9435141D01*
D02*
G37*
%LPC*%
G36*
X10590940Y9185000D02*
X10569060D01*
X10548845Y9176627D01*
X10533373Y9161155D01*
X10525000Y9140940D01*
Y9119060D01*
X10533373Y9098845D01*
X10548845Y9083374D01*
X10569060Y9075000D01*
X10590940D01*
X10611155Y9083374D01*
X10626626Y9098845D01*
X10635000Y9119060D01*
Y9140940D01*
X10626626Y9161155D01*
X10611155Y9176627D01*
X10590940Y9185000D01*
D02*
G37*
G36*
X10460656Y8869950D02*
X10441343D01*
X10422688Y8864951D01*
X10405962Y8855294D01*
X10392305Y8841638D01*
X10382649Y8824912D01*
X10377650Y8806256D01*
Y8786943D01*
X10382649Y8768288D01*
X10392305Y8751562D01*
X10405962Y8737905D01*
X10422688Y8728249D01*
X10441343Y8723250D01*
X10460656D01*
X10479312Y8728249D01*
X10496038Y8737905D01*
X10509694Y8751562D01*
X10519351Y8768288D01*
X10524350Y8786943D01*
Y8806256D01*
X10519351Y8824912D01*
X10509694Y8841638D01*
X10496038Y8855294D01*
X10479312Y8864951D01*
X10460656Y8869950D01*
D02*
G37*
G36*
X10085940Y8815000D02*
X10064060D01*
X10043845Y8806627D01*
X10028373Y8791155D01*
X10020000Y8770940D01*
Y8749060D01*
X10028373Y8728845D01*
X10043845Y8713373D01*
X10064060Y8705000D01*
X10085940D01*
X10106155Y8713373D01*
X10121626Y8728845D01*
X10130000Y8749060D01*
Y8770940D01*
X10121626Y8791155D01*
X10106155Y8806627D01*
X10085940Y8815000D01*
D02*
G37*
G36*
X9818440D02*
X9796560D01*
X9776345Y8806627D01*
X9760874Y8791155D01*
X9752500Y8770940D01*
Y8749060D01*
X9760874Y8728845D01*
X9776345Y8713373D01*
X9796560Y8705000D01*
X9818440D01*
X9838655Y8713373D01*
X9854127Y8728845D01*
X9862500Y8749060D01*
Y8770940D01*
X9854127Y8791155D01*
X9838655Y8806627D01*
X9818440Y8815000D01*
D02*
G37*
G36*
X10968656Y8768350D02*
X10949343D01*
X10930688Y8763351D01*
X10913962Y8753694D01*
X10900305Y8740038D01*
X10890649Y8723312D01*
X10885650Y8704656D01*
Y8685343D01*
X10890649Y8666688D01*
X10900305Y8649962D01*
X10913962Y8636305D01*
X10930688Y8626649D01*
X10949343Y8621650D01*
X10968656D01*
X10987312Y8626649D01*
X11004038Y8636305D01*
X11017694Y8649962D01*
X11027351Y8666688D01*
X11032350Y8685343D01*
Y8704656D01*
X11027351Y8723312D01*
X11017694Y8740038D01*
X11004038Y8753694D01*
X10987312Y8763351D01*
X10968656Y8768350D01*
D02*
G37*
G36*
X10460656Y8666750D02*
X10441343D01*
X10422688Y8661751D01*
X10405962Y8652094D01*
X10392305Y8638438D01*
X10382649Y8621712D01*
X10377650Y8603056D01*
Y8583743D01*
X10382649Y8565088D01*
X10392305Y8548362D01*
X10405962Y8534705D01*
X10422688Y8525049D01*
X10441343Y8520050D01*
X10460656D01*
X10479312Y8525049D01*
X10496038Y8534705D01*
X10509694Y8548362D01*
X10519351Y8565088D01*
X10524350Y8583743D01*
Y8603056D01*
X10519351Y8621712D01*
X10509694Y8638438D01*
X10496038Y8652094D01*
X10479312Y8661751D01*
X10460656Y8666750D01*
D02*
G37*
G36*
X8951948Y8465000D02*
X8933052D01*
X8915594Y8457768D01*
X8902232Y8444407D01*
X8895000Y8426948D01*
Y8408052D01*
X8902232Y8390594D01*
X8915594Y8377232D01*
X8933052Y8370000D01*
X8951948D01*
X8969406Y8377232D01*
X8982768Y8390594D01*
X8990000Y8408052D01*
Y8426948D01*
X8982768Y8444407D01*
X8969406Y8457768D01*
X8951948Y8465000D01*
D02*
G37*
G36*
X10954448Y8285000D02*
X10935552D01*
X10918093Y8277768D01*
X10904732Y8264406D01*
X10897500Y8246948D01*
Y8228052D01*
X10904732Y8210593D01*
X10918093Y8197232D01*
X10935552Y8190000D01*
X10954448D01*
X10971906Y8197232D01*
X10985268Y8210593D01*
X10992500Y8228052D01*
Y8246948D01*
X10985268Y8264406D01*
X10971906Y8277768D01*
X10954448Y8285000D01*
D02*
G37*
G36*
X10636948Y8282500D02*
X10618052D01*
X10600593Y8275268D01*
X10587232Y8261907D01*
X10580000Y8244448D01*
Y8225552D01*
X10587232Y8208094D01*
X10600593Y8194732D01*
X10618052Y8187500D01*
X10636948D01*
X10654406Y8194732D01*
X10667768Y8208094D01*
X10675000Y8225552D01*
Y8244448D01*
X10667768Y8261907D01*
X10654406Y8275268D01*
X10636948Y8282500D01*
D02*
G37*
G36*
X8911948D02*
X8893052D01*
X8875594Y8275268D01*
X8862232Y8261907D01*
X8855000Y8244448D01*
Y8225552D01*
X8862232Y8208094D01*
X8875594Y8194732D01*
X8893052Y8187500D01*
X8911948D01*
X8929407Y8194732D01*
X8942768Y8208094D01*
X8950000Y8225552D01*
Y8244448D01*
X8942768Y8261907D01*
X8929407Y8275268D01*
X8911948Y8282500D01*
D02*
G37*
G36*
X9451459Y7913105D02*
X9431568D01*
X9413190Y7905493D01*
X9399125Y7891428D01*
X9391513Y7873051D01*
Y7853160D01*
X9399125Y7834782D01*
X9413190Y7820717D01*
X9431568Y7813105D01*
X9451459D01*
X9469836Y7820717D01*
X9483901Y7834782D01*
X9491513Y7853160D01*
Y7873051D01*
X9483901Y7891428D01*
X9469836Y7905493D01*
X9451459Y7913105D01*
D02*
G37*
G36*
X8230165Y6006200D02*
X8204835D01*
X8180368Y5999644D01*
X8158432Y5986979D01*
X8140521Y5969068D01*
X8127856Y5947132D01*
X8121300Y5922665D01*
Y5897335D01*
X8127856Y5872868D01*
X8140521Y5850932D01*
X8158432Y5833021D01*
X8180368Y5820356D01*
X8204835Y5813800D01*
X8230165D01*
X8254632Y5820356D01*
X8276568Y5833021D01*
X8294479Y5850932D01*
X8307144Y5872868D01*
X8313700Y5897335D01*
Y5922665D01*
X8307144Y5947132D01*
X8294479Y5969068D01*
X8276568Y5986979D01*
X8254632Y5999644D01*
X8230165Y6006200D01*
D02*
G37*
G36*
X10308557Y5935000D02*
X10291442D01*
X10274911Y5930570D01*
X10260089Y5922013D01*
X10247987Y5909911D01*
X10239430Y5895089D01*
X10235000Y5878557D01*
Y5861442D01*
X10239430Y5844911D01*
X10247987Y5830089D01*
X10260089Y5817987D01*
X10274911Y5809430D01*
X10291442Y5805000D01*
X10308557D01*
X10325089Y5809430D01*
X10339911Y5817987D01*
X10352013Y5830089D01*
X10360570Y5844911D01*
X10365000Y5861442D01*
Y5878557D01*
X10360570Y5895089D01*
X10352013Y5909911D01*
X10339911Y5922013D01*
X10325089Y5930570D01*
X10308557Y5935000D01*
D02*
G37*
G36*
X9781057Y5932500D02*
X9763942D01*
X9747411Y5928070D01*
X9732589Y5919513D01*
X9720487Y5907411D01*
X9711930Y5892589D01*
X9707500Y5876058D01*
Y5858943D01*
X9711930Y5842411D01*
X9720487Y5827589D01*
X9732589Y5815487D01*
X9747411Y5806930D01*
X9763942Y5802500D01*
X9781057D01*
X9797589Y5806930D01*
X9812411Y5815487D01*
X9824513Y5827589D01*
X9833070Y5842411D01*
X9837500Y5858943D01*
Y5876058D01*
X9833070Y5892589D01*
X9824513Y5907411D01*
X9812411Y5919513D01*
X9797589Y5928070D01*
X9781057Y5932500D01*
D02*
G37*
G36*
X11917665Y5988700D02*
X11892335D01*
X11867868Y5982144D01*
X11845932Y5969479D01*
X11828021Y5951568D01*
X11815356Y5929632D01*
X11808800Y5905165D01*
Y5879835D01*
X11815356Y5855368D01*
X11828021Y5833432D01*
X11845932Y5815521D01*
X11867868Y5802856D01*
X11892335Y5796300D01*
X11917665D01*
X11942132Y5802856D01*
X11964068Y5815521D01*
X11981979Y5833432D01*
X11994644Y5855368D01*
X12001200Y5879835D01*
Y5905165D01*
X11994644Y5929632D01*
X11981979Y5951568D01*
X11964068Y5969479D01*
X11942132Y5982144D01*
X11917665Y5988700D01*
D02*
G37*
%LPD*%
D41*
X11877500Y6202500D02*
D03*
X8245000Y8825000D02*
D03*
D42*
X8217500Y5910000D02*
D03*
X11905000Y5892500D02*
D03*
X11907500Y9295000D02*
D03*
X8232500Y9292500D02*
D03*
D43*
X10959000Y8695000D02*
D03*
X10451000Y8593400D02*
D03*
Y8796600D02*
D03*
D44*
X11750000Y9000000D02*
D03*
X11875000Y8750000D02*
D03*
X11750000Y8500000D02*
D03*
Y7500000D02*
D03*
X11875000Y7250000D02*
D03*
X11750000Y7000000D02*
D03*
X11875000Y6750000D02*
D03*
X11750000Y6000000D02*
D03*
X11625000Y9250000D02*
D03*
X11500000Y9000000D02*
D03*
X11625000Y8750000D02*
D03*
X11500000Y8500000D02*
D03*
X11625000Y7250000D02*
D03*
Y6750000D02*
D03*
Y6250000D02*
D03*
X11500000Y6000000D02*
D03*
X11375000Y9250000D02*
D03*
Y8750000D02*
D03*
Y8250000D02*
D03*
Y7250000D02*
D03*
X11125000Y9250000D02*
D03*
X11000000Y9000000D02*
D03*
Y8500000D02*
D03*
X11125000Y8250000D02*
D03*
Y6750000D02*
D03*
X11000000Y6000000D02*
D03*
X10875000Y7750000D02*
D03*
X10750000Y6000000D02*
D03*
X10625000Y7250000D02*
D03*
X10500000Y7000000D02*
D03*
X10625000Y6750000D02*
D03*
X10500000Y6500000D02*
D03*
X10625000Y6250000D02*
D03*
X10500000Y6000000D02*
D03*
X10000000Y9000000D02*
D03*
X10125000Y7250000D02*
D03*
X10000000Y7000000D02*
D03*
X10125000Y6750000D02*
D03*
X10000000Y6500000D02*
D03*
X10125000Y6250000D02*
D03*
X9750000Y9000000D02*
D03*
X9875000Y6750000D02*
D03*
X9750000Y6000000D02*
D03*
X9500000Y9000000D02*
D03*
Y6000000D02*
D03*
X9000000Y8000000D02*
D03*
X9125000Y7250000D02*
D03*
Y6250000D02*
D03*
X8750000Y8500000D02*
D03*
Y8000000D02*
D03*
X8875000Y7750000D02*
D03*
X8750000Y7500000D02*
D03*
X8875000Y7250000D02*
D03*
Y6250000D02*
D03*
X8750000Y6000000D02*
D03*
X8625000Y9250000D02*
D03*
Y8750000D02*
D03*
X8500000Y8000000D02*
D03*
Y7500000D02*
D03*
Y7000000D02*
D03*
X8625000Y6250000D02*
D03*
X8500000Y6000000D02*
D03*
X8375000Y9250000D02*
D03*
X8250000Y9000000D02*
D03*
Y8500000D02*
D03*
X8375000Y8250000D02*
D03*
X8250000Y8000000D02*
D03*
X8375000Y7750000D02*
D03*
X8250000Y7500000D02*
D03*
X8375000Y7250000D02*
D03*
X8250000Y7000000D02*
D03*
X8375000Y6250000D02*
D03*
D45*
X10572500Y8842500D02*
D03*
X11577500Y8122500D02*
D03*
X10562500Y8132500D02*
D03*
X10485000Y9065000D02*
D03*
X11796430Y8119346D02*
D03*
X11387500Y7350000D02*
D03*
X11742500Y6892500D02*
D03*
X11245000Y7347500D02*
D03*
X11147500Y7147500D02*
D03*
X11145000Y7227500D02*
D03*
X11445000Y6875000D02*
D03*
X11352500Y6872500D02*
D03*
X11142500Y6867500D02*
D03*
X10485000Y7432500D02*
D03*
X10240000Y7317500D02*
D03*
X9990000Y7300000D02*
D03*
X9907500Y6045000D02*
D03*
X9777500Y8560000D02*
D03*
X9605000Y8550000D02*
D03*
X9247500Y8410000D02*
D03*
X8745000Y8805000D02*
D03*
X8755000Y8625000D02*
D03*
X9425000Y7422500D02*
D03*
X9807500Y8760000D02*
D03*
X10580000Y9130000D02*
D03*
X10075000Y8760000D02*
D03*
D46*
X10100540Y8103790D02*
D03*
X10210540D02*
D03*
Y7993790D02*
D03*
X10100540D02*
D03*
X9880540Y8103790D02*
D03*
X9990540D02*
D03*
Y7993790D02*
D03*
X9880540D02*
D03*
X10210540Y7773790D02*
D03*
Y7663790D02*
D03*
Y7883790D02*
D03*
X10100540D02*
D03*
X9990540Y7773790D02*
D03*
Y7883790D02*
D03*
X10100540Y7773790D02*
D03*
Y7663790D02*
D03*
X9990540D02*
D03*
X9125000Y8790000D02*
D03*
X9235000D02*
D03*
X9125000Y8680000D02*
D03*
X9235000D02*
D03*
X9880540Y7883790D02*
D03*
X9770540Y8103790D02*
D03*
Y7993790D02*
D03*
Y7883790D02*
D03*
Y7773790D02*
D03*
X9880540D02*
D03*
Y7663790D02*
D03*
X9770540D02*
D03*
D47*
X9385000Y9060000D02*
D03*
X9305000Y8452500D02*
D03*
X9447500Y7782500D02*
D03*
X8970000Y7732500D02*
D03*
Y7617500D02*
D03*
X10945000Y8237500D02*
D03*
X10627500Y8235000D02*
D03*
X8942500Y8417500D02*
D03*
X8902500Y8235000D02*
D03*
D48*
X9807406Y8322500D02*
D03*
X9441513Y7863105D02*
D03*
D49*
X9772500Y5867500D02*
D03*
X10300000Y5870000D02*
D03*
%TF.MD5,4cfa4268258f7a37f10fb6324b8c4136*%
M02*
